<?xml version="1.0" encoding="utf-8"?>
<!-- Generator: Adobe Illustrator 26.0.3, SVG Export Plug-In . SVG Version: 6.00 Build 0)  -->
<svg version="1.1" id="Layer_1" xmlns="http://www.w3.org/2000/svg" xmlns:xlink="http://www.w3.org/1999/xlink" x="0px" y="0px"
	 viewBox="0 0 579.3 192.1" style="enable-background:new 0 0 579.3 192.1;" xml:space="preserve">
<g>
	<g>
		<path d="M24.7,182c-0.2,0.3-0.5,0.7-0.9,1.1c-0.4,0.4-0.9,0.8-1.6,1.1c-0.7,0.3-1.5,0.6-2.4,0.9c-0.9,0.2-2.1,0.4-3.4,0.4
			c-1.4,0-2.7-0.3-3.9-0.8c-1.2-0.5-2.2-1.2-3.1-2.2c-0.9-1-1.5-2.1-2-3.5s-0.7-3-0.7-4.7v-1.8c0-1.8,0.2-3.3,0.6-4.7
			c0.4-1.4,1-2.5,1.8-3.5c0.8-1,1.8-1.7,3-2.2c1.2-0.5,2.5-0.8,4-0.8c1.3,0,2.5,0.2,3.5,0.5c1,0.4,1.9,0.9,2.6,1.5
			c0.7,0.6,1.3,1.4,1.7,2.3c0.4,0.9,0.7,1.8,0.9,2.9h-3.1c-0.1-0.6-0.3-1.2-0.6-1.8c-0.3-0.6-0.6-1.1-1-1.5c-0.4-0.4-1-0.8-1.6-1
			c-0.6-0.2-1.4-0.4-2.3-0.4c-1.1,0-2,0.2-2.8,0.6c-0.8,0.4-1.5,1-2,1.7c-0.5,0.7-0.9,1.6-1.2,2.7c-0.3,1.1-0.4,2.2-0.4,3.6v1.9
			c0,1.4,0.2,2.6,0.5,3.6c0.3,1.1,0.8,2,1.4,2.7c0.6,0.7,1.3,1.3,2.1,1.7c0.8,0.4,1.7,0.6,2.7,0.6c0.8,0,1.6-0.1,2.1-0.2
			c0.6-0.1,1.1-0.3,1.5-0.4c0.4-0.2,0.7-0.3,1-0.5c0.2-0.2,0.5-0.4,0.6-0.6v-5.3h-5.4v-2.5h8.5V182z"/>
		<path d="M49.7,174.2H39.5v8.3h11.8v2.5H36.4v-23.5h14.8v2.6H39.5v7.6h10.2V174.2z"/>
		<path d="M70.5,175.5h-5.5v9.5h-3.1v-23.5h7.8c2.6,0,4.7,0.6,6.1,1.8c1.4,1.2,2.1,3,2.1,5.3c0,1.5-0.4,2.7-1.2,3.8
			c-0.8,1.1-1.9,1.9-3.3,2.4l5.5,10v0.2h-3.3L70.5,175.5z M64.9,173h4.8c0.8,0,1.6-0.1,2.2-0.3c0.6-0.2,1.2-0.5,1.6-0.9
			c0.4-0.4,0.7-0.9,0.9-1.4c0.2-0.5,0.3-1.1,0.3-1.7c0-0.7-0.1-1.3-0.3-1.8s-0.5-1-0.9-1.4c-0.4-0.4-1-0.7-1.6-0.9
			c-0.6-0.2-1.4-0.3-2.3-0.3h-4.7V173z"/>
		<path d="M92.8,161.5l7.7,19.2l7.7-19.2h4v23.5h-3.1v-9.2l0.3-9.9l-7.7,19h-2.4l-7.7-19l0.3,9.8v9.2h-3.1v-23.5H92.8z"/>
		<path d="M137.6,178.9h-9.8l-2.2,6.1h-3.2l9-23.5h2.7l9,23.5h-3.2L137.6,178.9z M128.7,176.4h8l-4-11L128.7,176.4z"/>
		<path d="M170.8,185.1h-3.1l-11.8-18.1v18.1h-3.1v-23.5h3.1l11.9,18.2v-18.2h3.1V185.1z"/>
		<path d="M215.7,174.1c0,2.3-0.4,4.2-1.1,5.9c-0.7,1.6-1.7,2.9-3,3.9l4.2,3.3l-2.1,2l-5-3.9c-0.8,0.2-1.6,0.3-2.5,0.3
			c-1.4,0-2.7-0.3-3.8-0.8c-1.2-0.5-2.2-1.3-3-2.2c-0.8-1-1.5-2.2-2-3.6c-0.5-1.4-0.7-3-0.7-4.7v-1.5c0-1.8,0.2-3.3,0.7-4.7
			c0.5-1.4,1.1-2.6,1.9-3.6c0.8-1,1.8-1.7,3-2.3c1.2-0.5,2.4-0.8,3.8-0.8c1.4,0,2.7,0.3,3.9,0.8c1.2,0.5,2.2,1.3,3,2.3
			c0.8,1,1.5,2.2,1.9,3.6c0.4,1.4,0.7,3,0.7,4.7V174.1z M212.6,172.5c0-1.4-0.1-2.6-0.4-3.7c-0.3-1.1-0.7-2-1.2-2.7
			c-0.5-0.7-1.2-1.3-2-1.7c-0.8-0.4-1.7-0.6-2.7-0.6c-1,0-1.8,0.2-2.6,0.6s-1.4,0.9-2,1.7c-0.6,0.7-1,1.6-1.3,2.7
			c-0.3,1.1-0.5,2.3-0.5,3.7v1.5c0,1.4,0.2,2.7,0.5,3.7c0.3,1.1,0.7,2,1.3,2.7c0.6,0.7,1.2,1.3,2,1.7c0.8,0.4,1.7,0.6,2.6,0.6
			c1,0,1.9-0.2,2.7-0.6c0.8-0.4,1.5-0.9,2-1.7c0.5-0.7,1-1.6,1.2-2.7c0.3-1.1,0.4-2.3,0.4-3.7V172.5z"/>
		<path d="M243.7,161.5v15.9c0,1.3-0.2,2.5-0.7,3.5c-0.5,1-1.1,1.8-1.9,2.5c-0.8,0.7-1.7,1.1-2.7,1.5s-2.1,0.5-3.3,0.5
			c-1.2,0-2.3-0.2-3.3-0.5s-1.9-0.8-2.7-1.5c-0.8-0.7-1.4-1.5-1.8-2.5c-0.4-1-0.7-2.1-0.7-3.5v-15.9h3.1v15.9c0,0.9,0.1,1.7,0.4,2.4
			c0.3,0.7,0.6,1.2,1.1,1.7c0.5,0.4,1,0.8,1.7,1c0.7,0.2,1.4,0.3,2.2,0.3c0.8,0,1.6-0.1,2.2-0.3c0.7-0.2,1.2-0.5,1.7-1
			c0.5-0.4,0.8-1,1.1-1.7c0.3-0.7,0.4-1.5,0.4-2.4v-15.9H243.7z"/>
		<path d="M267.8,178.9H258l-2.2,6.1h-3.2l9-23.5h2.7l9,23.5H270L267.8,178.9z M258.9,176.4h8l-4-11L258.9,176.4z"/>
		<path d="M286.1,182.5h11.1v2.5H283v-23.5h3.1V182.5z"/>
		<path d="M310.7,185.1h-3.1v-23.5h3.1V185.1z"/>
		<path d="M338.8,164.1h-7.6v21h-3.1v-21h-7.5v-2.6h18.2V164.1z"/>
		<path d="M356.3,173.3l6.1-11.8h3.5l-8.1,14.7v8.8h-3.1v-8.8l-8.1-14.7h3.6L356.3,173.3z"/>
		<path d="M407.7,177.6c-0.1,1.1-0.4,2.1-0.8,3.1c-0.4,1-1,1.8-1.7,2.5c-0.7,0.7-1.6,1.2-2.7,1.6c-1.1,0.4-2.3,0.6-3.7,0.6
			c-1.4,0-2.6-0.3-3.8-0.8c-1.1-0.5-2.1-1.3-2.9-2.2c-0.8-1-1.4-2.1-1.9-3.4c-0.4-1.3-0.7-2.8-0.7-4.5v-2.4c0-1.6,0.2-3.1,0.7-4.5
			c0.4-1.3,1.1-2.5,1.9-3.4c0.8-1,1.8-1.7,3-2.2c1.2-0.5,2.5-0.8,3.9-0.8c1.3,0,2.5,0.2,3.5,0.6c1,0.4,1.9,0.9,2.6,1.6
			c0.7,0.7,1.3,1.5,1.7,2.5c0.4,1,0.7,2,0.8,3.2h-3.1c-0.1-0.8-0.3-1.6-0.5-2.2c-0.2-0.7-0.6-1.2-1-1.7c-0.4-0.5-1-0.8-1.6-1.1
			c-0.6-0.2-1.4-0.4-2.3-0.4c-1,0-2,0.2-2.8,0.6c-0.8,0.4-1.5,1-2,1.7c-0.5,0.7-0.9,1.6-1.2,2.6c-0.3,1-0.4,2.2-0.4,3.4v2.4
			c0,1.2,0.1,2.2,0.4,3.2c0.2,1,0.6,1.9,1.1,2.7c0.5,0.8,1.1,1.4,1.9,1.8c0.8,0.4,1.7,0.7,2.7,0.7c1,0,1.8-0.1,2.5-0.4
			c0.7-0.2,1.2-0.6,1.7-1c0.4-0.4,0.8-1,1-1.6c0.2-0.7,0.4-1.4,0.6-2.2H407.7z"/>
		<path d="M436.7,174.1c0,1.8-0.2,3.3-0.7,4.7c-0.4,1.4-1.1,2.6-1.9,3.6c-0.8,1-1.8,1.7-3,2.2c-1.2,0.5-2.5,0.8-3.9,0.8
			c-1.4,0-2.7-0.3-3.8-0.8c-1.2-0.5-2.2-1.3-3-2.2c-0.8-1-1.5-2.2-2-3.6c-0.5-1.4-0.7-3-0.7-4.7v-1.5c0-1.8,0.2-3.3,0.7-4.7
			c0.5-1.4,1.1-2.6,1.9-3.6c0.8-1,1.8-1.7,3-2.3c1.2-0.5,2.4-0.8,3.8-0.8c1.4,0,2.7,0.3,3.9,0.8c1.2,0.5,2.2,1.3,3,2.3
			c0.8,1,1.5,2.2,1.9,3.6s0.7,3,0.7,4.7V174.1z M433.6,172.5c0-1.4-0.1-2.6-0.4-3.7c-0.3-1.1-0.7-2-1.3-2.7c-0.5-0.7-1.2-1.3-2-1.7
			c-0.8-0.4-1.7-0.6-2.7-0.6c-1,0-1.8,0.2-2.6,0.6s-1.5,0.9-2,1.7c-0.6,0.7-1,1.6-1.3,2.7c-0.3,1.1-0.5,2.3-0.5,3.7v1.5
			c0,1.4,0.2,2.7,0.5,3.7c0.3,1.1,0.7,2,1.3,2.7c0.6,0.7,1.2,1.3,2,1.7c0.8,0.4,1.7,0.6,2.6,0.6c1,0,1.9-0.2,2.7-0.6
			c0.8-0.4,1.5-0.9,2-1.7c0.5-0.7,1-1.6,1.2-2.7c0.3-1.1,0.4-2.3,0.4-3.7V172.5z"/>
		<path d="M466,185.1h-3.1L451,166.9v18.1h-3.1v-23.5h3.1l11.9,18.2v-18.2h3.1V185.1z"/>
		<path d="M493.9,164.1h-7.6v21h-3.1v-21h-7.5v-2.6h18.2V164.1z"/>
		<path d="M512.6,175.5h-5.5v9.5H504v-23.5h7.8c2.6,0,4.7,0.6,6.1,1.8c1.4,1.2,2.1,3,2.1,5.3c0,1.5-0.4,2.7-1.2,3.8
			c-0.8,1.1-1.9,1.9-3.3,2.4l5.5,10v0.2h-3.3L512.6,175.5z M507.1,173h4.8c0.8,0,1.6-0.1,2.2-0.3c0.6-0.2,1.2-0.5,1.6-0.9
			c0.4-0.4,0.7-0.9,0.9-1.4c0.2-0.5,0.3-1.1,0.3-1.7c0-0.7-0.1-1.3-0.3-1.8c-0.2-0.6-0.5-1-0.9-1.4c-0.4-0.4-1-0.7-1.6-0.9
			c-0.6-0.2-1.4-0.3-2.3-0.3h-4.7V173z"/>
		<path d="M549,174.1c0,1.8-0.2,3.3-0.7,4.7c-0.4,1.4-1.1,2.6-1.9,3.6s-1.8,1.7-3,2.2c-1.2,0.5-2.5,0.8-3.9,0.8
			c-1.4,0-2.7-0.3-3.8-0.8c-1.2-0.5-2.2-1.3-3-2.2s-1.5-2.2-2-3.6c-0.5-1.4-0.7-3-0.7-4.7v-1.5c0-1.8,0.2-3.3,0.7-4.7
			c0.5-1.4,1.1-2.6,1.9-3.6c0.8-1,1.8-1.7,3-2.3c1.2-0.5,2.4-0.8,3.8-0.8c1.4,0,2.7,0.3,3.9,0.8c1.2,0.5,2.2,1.3,3,2.3
			c0.8,1,1.5,2.2,1.9,3.6c0.4,1.4,0.7,3,0.7,4.7V174.1z M546,172.5c0-1.4-0.1-2.6-0.4-3.7c-0.3-1.1-0.7-2-1.3-2.7
			c-0.5-0.7-1.2-1.3-2-1.7c-0.8-0.4-1.7-0.6-2.7-0.6c-1,0-1.8,0.2-2.6,0.6c-0.8,0.4-1.5,0.9-2,1.7c-0.6,0.7-1,1.6-1.3,2.7
			c-0.3,1.1-0.5,2.3-0.5,3.7v1.5c0,1.4,0.2,2.7,0.5,3.7c0.3,1.1,0.7,2,1.3,2.7c0.6,0.7,1.2,1.3,2,1.7c0.8,0.4,1.7,0.6,2.6,0.6
			c1,0,1.9-0.2,2.7-0.6c0.8-0.4,1.5-0.9,2-1.7c0.5-0.7,1-1.6,1.2-2.7c0.3-1.1,0.4-2.3,0.4-3.7V172.5z"/>
		<path d="M563.4,182.5h11.1v2.5h-14.3v-23.5h3.1V182.5z"/>
	</g>
	<path d="M476.4,88.3v2c0,27.1,22,49.1,49.1,49.1h0c27.1,0,49.1-22,49.1-49.1v-2c0-27.1-22-49.1-49.1-49.1h0
		C498.4,39.2,476.4,61.2,476.4,88.3z M525.5,115.8L525.5,115.8c-14.1,0-25.5-11.4-25.5-25.5v-2c0-14.1,11.4-25.5,25.5-25.5l0,0
		c14.1,0,25.5,11.4,25.5,25.5v2C551,104.4,539.5,115.8,525.5,115.8z"/>
	<rect x="411.5" y="78.6" transform="matrix(-1.836970e-16 1 -1 -1.836970e-16 548.8269 -368.0882)" width="93.9" height="23.6"/>
	<polygon points="285,147.2 255.1,147.2 206.8,84.7 236.7,84.7 	"/>
	<path d="M139.7,73.8c0,7.8-1.4,15.3-3.8,22.3H72.2V72.5h67.5C139.7,72.9,139.7,73.3,139.7,73.8z"/>
	<path d="M139.7,72.5h-23.6c0,0.4,0,0.9,0,1.3c0,8.2-2.3,15.8-6.2,22.3c-1.8,2.9-3.9,5.7-6.4,8.1c-7.8,7.8-18.5,12.6-30.4,12.6h0
		c-23.7,0-43-19.2-43-43c0-11.9,4.8-22.6,12.6-30.4c7.8-7.8,18.5-12.6,30.4-12.6h0c15.3,0,28.7,8,36.3,20l17-17
		c-1.9-2.5-4-4.9-6.2-7.2c-12.1-12-28.7-19.5-47.1-19.5s-35,7.5-47.1,19.5C14,38.7,6.5,55.4,6.5,73.8c0,36.8,29.8,66.6,66.6,66.6
		c18.4,0,35-7.5,47.1-19.5c6.9-6.9,12.3-15.4,15.7-24.8c2.5-7,3.8-14.5,3.8-22.3C139.7,73.3,139.7,72.9,139.7,72.5z"/>
	<path d="M146.6,73.8L146.6,73.8c0,36.8,29.8,66.6,66.6,66.6h0c36.8,0,66.6-29.8,66.6-66.6v0c0-36.8-29.8-66.6-66.6-66.6h0
		C176.5,7.2,146.6,37,146.6,73.8z M213.3,116.8L213.3,116.8c-23.7,0-43-19.2-43-43v0c0-23.7,19.2-43,43-43h0c23.7,0,43,19.2,43,43v0
		C256.2,97.5,237,116.8,213.3,116.8z"/>
	<path d="M382.8,104.2c-7.8,7.8-18.5,12.6-30.4,12.6c-23.7,0-43-19.2-43-43c0-11.9,4.8-22.6,12.6-30.4c7.8-7.8,18.5-12.6,30.4-12.6
		c11.9,0,22.6,4.8,30.4,12.6c2.5,2.5,4.7,5.3,6.5,8.3l17-17c-2.1-2.8-4.3-5.5-6.8-8c-12-12-28.7-19.5-47.1-19.5
		c-18.4,0-35,7.5-47.1,19.5c-12,12-19.5,28.7-19.5,47.1c0,36.8,29.8,66.6,66.6,66.6c18.4,0,35.1-7.5,47.1-19.5
		c2.2-2.2,4.3-4.6,6.2-7.1l-17-17C387,99.5,385,102,382.8,104.2z"/>
	<circle cx="458.5" cy="20.1" r="15.2"/>
	<circle cx="426.5" cy="125.4" r="13.9"/>
</g>
<g>
	<g>
		<path d="M1224.5,178.4c-0.2,0.3-0.5,0.7-0.9,1.1c-0.4,0.4-0.9,0.8-1.6,1.1c-0.6,0.3-1.4,0.6-2.4,0.9c-0.9,0.2-2.1,0.4-3.4,0.4
			c-1.4,0-2.7-0.2-3.9-0.8c-1.2-0.5-2.2-1.2-3.1-2.2c-0.9-0.9-1.5-2.1-2-3.5c-0.5-1.4-0.7-2.9-0.7-4.7v-1.8c0-1.7,0.2-3.3,0.6-4.6
			c0.4-1.4,1-2.5,1.8-3.5c0.8-0.9,1.8-1.7,2.9-2.2c1.2-0.5,2.5-0.8,4-0.8c1.3,0,2.5,0.2,3.5,0.5c1,0.4,1.9,0.9,2.6,1.5
			c0.7,0.6,1.3,1.4,1.7,2.3c0.4,0.9,0.7,1.8,0.8,2.9h-3.1c-0.1-0.6-0.3-1.2-0.6-1.8c-0.3-0.6-0.6-1-1-1.5c-0.4-0.4-1-0.8-1.6-1
			c-0.6-0.2-1.4-0.4-2.3-0.4c-1.1,0-2,0.2-2.8,0.6c-0.8,0.4-1.4,1-1.9,1.7c-0.5,0.7-0.9,1.6-1.1,2.7c-0.3,1-0.4,2.2-0.4,3.5v1.9
			c0,1.3,0.2,2.5,0.5,3.6c0.3,1.1,0.8,1.9,1.4,2.7c0.6,0.7,1.3,1.3,2.1,1.7c0.8,0.4,1.7,0.6,2.7,0.6c0.8,0,1.5-0.1,2.1-0.2
			c0.6-0.1,1.1-0.3,1.5-0.4c0.4-0.2,0.7-0.3,1-0.5c0.2-0.2,0.4-0.4,0.6-0.6v-5.2h-5.4v-2.5h8.4V178.4z"/>
		<path d="M1249.3,170.7h-10.1v8.2h11.7v2.5h-14.8v-23.3h14.6v2.5h-11.6v7.5h10.1V170.7z"/>
		<path d="M1269.8,172h-5.5v9.4h-3.1v-23.3h7.7c2.6,0,4.6,0.6,6,1.8c1.4,1.2,2.1,2.9,2.1,5.2c0,1.4-0.4,2.7-1.2,3.8
			c-0.8,1.1-1.9,1.9-3.3,2.4l5.5,9.9v0.2h-3.3L1269.8,172z M1264.3,169.5h4.7c0.8,0,1.6-0.1,2.2-0.3c0.6-0.2,1.1-0.5,1.6-0.9
			c0.4-0.4,0.7-0.8,0.9-1.4c0.2-0.5,0.3-1.1,0.3-1.7c0-0.7-0.1-1.3-0.3-1.8c-0.2-0.5-0.5-1-0.9-1.4c-0.4-0.4-0.9-0.7-1.6-0.9
			c-0.6-0.2-1.4-0.3-2.3-0.3h-4.6V169.5z"/>
		<path d="M1291.9,158.2l7.6,19l7.6-19h4v23.3h-3.1v-9.1l0.3-9.8l-7.6,18.8h-2.3l-7.6-18.8l0.3,9.7v9.1h-3.1v-23.3H1291.9z"/>
		<path d="M1336.2,175.4h-9.7l-2.2,6.1h-3.2l8.9-23.3h2.7l8.9,23.3h-3.1L1336.2,175.4z M1327.4,172.9h7.9l-4-10.9L1327.4,172.9z"/>
		<path d="M1369.1,181.4h-3.1l-11.7-17.9v17.9h-3.1v-23.3h3.1l11.7,18v-18h3.1V181.4z"/>
		<path d="M1413.5,170.6c0,2.2-0.4,4.2-1.1,5.8c-0.7,1.6-1.7,2.9-3,3.8l4.2,3.3l-2.1,1.9l-4.9-3.9c-0.8,0.2-1.6,0.3-2.4,0.3
			c-1.4,0-2.6-0.3-3.8-0.8c-1.2-0.5-2.1-1.3-3-2.2c-0.8-1-1.5-2.1-1.9-3.5c-0.5-1.4-0.7-2.9-0.7-4.7v-1.5c0-1.7,0.2-3.3,0.7-4.7
			c0.5-1.4,1.1-2.6,1.9-3.5c0.8-1,1.8-1.7,3-2.2c1.2-0.5,2.4-0.8,3.8-0.8c1.4,0,2.7,0.3,3.9,0.8c1.2,0.5,2.1,1.3,3,2.2
			c0.8,1,1.5,2.1,1.9,3.5c0.4,1.4,0.7,3,0.7,4.7V170.6z M1410.5,169.1c0-1.4-0.1-2.6-0.4-3.7c-0.3-1.1-0.7-2-1.2-2.7
			c-0.5-0.7-1.2-1.3-2-1.6c-0.8-0.4-1.7-0.6-2.7-0.6c-0.9,0-1.8,0.2-2.6,0.6c-0.8,0.4-1.4,0.9-2,1.6c-0.5,0.7-1,1.6-1.3,2.7
			c-0.3,1.1-0.4,2.3-0.4,3.7v1.5c0,1.4,0.2,2.6,0.5,3.7c0.3,1.1,0.7,2,1.3,2.7c0.5,0.7,1.2,1.3,2,1.7c0.8,0.4,1.6,0.6,2.6,0.6
			c1,0,1.9-0.2,2.7-0.6c0.8-0.4,1.4-0.9,2-1.7c0.5-0.7,0.9-1.6,1.2-2.7c0.3-1.1,0.4-2.3,0.4-3.7V169.1z"/>
		<path d="M1441.2,158.2v15.8c0,1.3-0.2,2.5-0.7,3.4c-0.5,1-1.1,1.8-1.8,2.4s-1.7,1.1-2.7,1.5c-1,0.3-2.1,0.5-3.2,0.5
			c-1.2,0-2.3-0.2-3.3-0.5c-1-0.3-1.9-0.8-2.7-1.5s-1.3-1.5-1.8-2.4c-0.4-1-0.6-2.1-0.6-3.4v-15.8h3v15.8c0,0.9,0.1,1.7,0.4,2.4
			c0.3,0.7,0.6,1.2,1.1,1.7c0.5,0.4,1,0.8,1.7,1c0.7,0.2,1.4,0.3,2.2,0.3c0.8,0,1.5-0.1,2.2-0.3c0.7-0.2,1.2-0.5,1.7-1
			c0.5-0.4,0.8-1,1.1-1.7c0.3-0.7,0.4-1.5,0.4-2.4v-15.8H1441.2z"/>
		<path d="M1465.1,175.4h-9.7l-2.2,6.1h-3.2l8.9-23.3h2.7l8.9,23.3h-3.1L1465.1,175.4z M1456.2,172.9h7.9l-4-10.9L1456.2,172.9z"/>
		<path d="M1483.2,178.9h11v2.5h-14.1v-23.3h3.1V178.9z"/>
		<path d="M1507.5,181.4h-3.1v-23.3h3.1V181.4z"/>
		<path d="M1535.3,160.7h-7.5v20.7h-3.1v-20.7h-7.5v-2.5h18V160.7z"/>
		<path d="M1552.7,169.9l6.1-11.7h3.5l-8,14.6v8.7h-3.1v-8.7l-8-14.6h3.5L1552.7,169.9z"/>
		<path d="M1603.5,174.1c-0.1,1.1-0.4,2.1-0.8,3.1c-0.4,0.9-1,1.8-1.7,2.4c-0.7,0.7-1.6,1.2-2.7,1.6c-1,0.4-2.3,0.6-3.7,0.6
			c-1.4,0-2.6-0.3-3.7-0.8c-1.1-0.5-2.1-1.2-2.9-2.2c-0.8-0.9-1.4-2.1-1.8-3.4c-0.4-1.3-0.6-2.8-0.6-4.4v-2.3c0-1.6,0.2-3.1,0.7-4.4
			c0.4-1.3,1.1-2.5,1.9-3.4c0.8-0.9,1.8-1.7,2.9-2.2c1.2-0.5,2.5-0.8,3.9-0.8c1.3,0,2.5,0.2,3.5,0.6c1,0.4,1.9,0.9,2.6,1.6
			c0.7,0.7,1.3,1.5,1.7,2.5c0.4,1,0.7,2,0.8,3.2h-3.1c-0.1-0.8-0.3-1.5-0.5-2.2c-0.2-0.6-0.6-1.2-1-1.7c-0.4-0.5-1-0.8-1.6-1.1
			c-0.6-0.2-1.4-0.4-2.3-0.4c-1,0-1.9,0.2-2.7,0.6c-0.8,0.4-1.4,1-2,1.7c-0.5,0.7-0.9,1.6-1.2,2.6c-0.3,1-0.4,2.1-0.4,3.4v2.4
			c0,1.1,0.1,2.2,0.4,3.2c0.2,1,0.6,1.9,1.1,2.6c0.5,0.8,1.1,1.3,1.9,1.8c0.8,0.4,1.7,0.6,2.7,0.6c1,0,1.8-0.1,2.5-0.4
			c0.7-0.2,1.2-0.6,1.7-1c0.4-0.4,0.8-1,1-1.6c0.2-0.6,0.4-1.4,0.6-2.2H1603.5z"/>
		<path d="M1632.1,170.6c0,1.7-0.2,3.3-0.7,4.7c-0.4,1.4-1.1,2.6-1.9,3.5c-0.8,1-1.8,1.7-2.9,2.2c-1.2,0.5-2.4,0.8-3.9,0.8
			c-1.4,0-2.6-0.3-3.8-0.8c-1.2-0.5-2.1-1.3-3-2.2c-0.8-1-1.5-2.1-1.9-3.5c-0.5-1.4-0.7-2.9-0.7-4.7v-1.5c0-1.7,0.2-3.3,0.7-4.7
			c0.5-1.4,1.1-2.6,1.9-3.5c0.8-1,1.8-1.7,3-2.2c1.2-0.5,2.4-0.8,3.8-0.8c1.4,0,2.7,0.3,3.9,0.8c1.2,0.5,2.1,1.3,3,2.2
			s1.4,2.1,1.9,3.5c0.4,1.4,0.7,3,0.7,4.7V170.6z M1629.1,169.1c0-1.4-0.1-2.6-0.4-3.7c-0.3-1.1-0.7-2-1.2-2.7
			c-0.5-0.7-1.2-1.3-2-1.6c-0.8-0.4-1.7-0.6-2.7-0.6c-0.9,0-1.8,0.2-2.6,0.6s-1.4,0.9-2,1.6c-0.5,0.7-1,1.6-1.3,2.7
			c-0.3,1.1-0.4,2.3-0.4,3.7v1.5c0,1.4,0.2,2.6,0.5,3.7c0.3,1.1,0.7,2,1.3,2.7c0.6,0.7,1.2,1.3,2,1.7c0.8,0.4,1.6,0.6,2.6,0.6
			c1,0,1.9-0.2,2.7-0.6c0.8-0.4,1.4-0.9,2-1.7c0.5-0.7,0.9-1.6,1.2-2.7c0.3-1.1,0.4-2.3,0.4-3.7V169.1z"/>
		<path d="M1661.2,181.4h-3.1l-11.7-17.9v17.9h-3.1v-23.3h3.1l11.7,18v-18h3.1V181.4z"/>
		<path d="M1688.8,160.7h-7.5v20.7h-3.1v-20.7h-7.5v-2.5h18V160.7z"/>
		<path d="M1707.3,172h-5.5v9.4h-3.1v-23.3h7.7c2.6,0,4.6,0.6,6,1.8c1.4,1.2,2.1,2.9,2.1,5.2c0,1.4-0.4,2.7-1.2,3.8
			c-0.8,1.1-1.9,1.9-3.3,2.4l5.5,9.9v0.2h-3.3L1707.3,172z M1701.8,169.5h4.7c0.8,0,1.6-0.1,2.2-0.3c0.6-0.2,1.1-0.5,1.6-0.9
			c0.4-0.4,0.7-0.8,0.9-1.4c0.2-0.5,0.3-1.1,0.3-1.7c0-0.7-0.1-1.3-0.3-1.8c-0.2-0.5-0.5-1-0.9-1.4c-0.4-0.4-0.9-0.7-1.6-0.9
			c-0.6-0.2-1.4-0.3-2.3-0.3h-4.6V169.5z"/>
		<path d="M1743.4,170.6c0,1.7-0.2,3.3-0.7,4.7c-0.4,1.4-1.1,2.6-1.9,3.5c-0.8,1-1.8,1.7-2.9,2.2c-1.2,0.5-2.4,0.8-3.9,0.8
			c-1.4,0-2.6-0.3-3.8-0.8c-1.2-0.5-2.1-1.3-3-2.2s-1.5-2.1-1.9-3.5c-0.5-1.4-0.7-2.9-0.7-4.7v-1.5c0-1.7,0.2-3.3,0.7-4.7
			c0.5-1.4,1.1-2.6,1.9-3.5c0.8-1,1.8-1.7,3-2.2c1.2-0.5,2.4-0.8,3.8-0.8c1.4,0,2.7,0.3,3.9,0.8c1.2,0.5,2.1,1.3,3,2.2
			s1.4,2.1,1.9,3.5c0.4,1.4,0.7,3,0.7,4.7V170.6z M1740.3,169.1c0-1.4-0.1-2.6-0.4-3.7c-0.3-1.1-0.7-2-1.2-2.7
			c-0.5-0.7-1.2-1.3-2-1.6c-0.8-0.4-1.7-0.6-2.7-0.6c-0.9,0-1.8,0.2-2.6,0.6c-0.8,0.4-1.4,0.9-2,1.6c-0.5,0.7-1,1.6-1.3,2.7
			c-0.3,1.1-0.4,2.3-0.4,3.7v1.5c0,1.4,0.2,2.6,0.5,3.7c0.3,1.1,0.7,2,1.3,2.7c0.6,0.7,1.2,1.3,2,1.7c0.8,0.4,1.6,0.6,2.6,0.6
			c1,0,1.9-0.2,2.7-0.6c0.8-0.4,1.4-0.9,2-1.7c0.5-0.7,0.9-1.6,1.2-2.7c0.3-1.1,0.4-2.3,0.4-3.7V169.1z"/>
		<path d="M1757.6,178.9h11v2.5h-14.1v-23.3h3.1V178.9z"/>
	</g>
	<path d="M1328.2,34.6l-16.8,16.7c-10.7-11.3-23.1-16.9-37.3-16.9c-12.4,0-22.7,4.1-31.1,12.3c-8.4,8.2-12.5,18.2-12.5,29.9
		c0,12.1,4.3,22.4,13,30.9c8.7,8.4,19.4,12.6,32.1,12.6c8.3,0,15.2-1.7,20.9-5.2c5.7-3.5,10.3-8.9,13.7-16.3h-36.4V76h63.2l0.2,5.3
		c0,11-2.8,21.4-8.5,31.3c-5.7,9.9-13.1,17.4-22.1,22.6c-9.1,5.2-19.7,7.8-31.9,7.8c-13,0-24.7-2.8-34.9-8.5
		c-10.2-5.7-18.3-13.7-24.3-24.2c-6-10.5-8.9-21.8-8.9-33.9c0-16.6,5.5-31.1,16.5-43.4c13-14.6,30-22,50.9-22
		c10.9,0,21.2,2,30.7,6.1C1312.7,20.4,1320.5,26.3,1328.2,34.6z"/>
	<path d="M1456.5,121.4l21.9,28.3h-28.3l-11.1-14.3c-9.2,5-19.4,7.6-30.7,7.6c-18.9,0-34.6-6.5-47.1-19.5
		c-12.5-13-18.7-28.5-18.7-46.5c0-12,2.9-23.1,8.7-33.1c5.8-10.1,13.8-18,24-24c10.2-5.9,21.1-8.9,32.8-8.9c17.8,0,33.2,6.4,46,19.3
		s19.2,28.6,19.2,47.1C1473.1,94.3,1467.6,109,1456.5,121.4z M1441.5,102.1c5.1-7.5,7.6-15.8,7.6-25c0-11.9-4-22-12.1-30.3
		c-8-8.3-17.8-12.5-29.2-12.5c-11.7,0-21.6,4-29.5,12.1c-7.9,8.1-11.9,18.4-11.9,30.9c0,13.9,5,24.9,15,33
		c7.8,6.3,16.7,9.5,26.6,9.5c5.7,0,11.1-1.1,16.1-3.3l-22.5-29h28.5L1441.5,102.1z"/>
	<path d="M1600.7,36.2l-16.7,16c-11.4-12-24.2-18-38.4-18c-12,0-22.1,4.1-30.4,12.3c-8.2,8.2-12.3,18.3-12.3,30.4
		c0,8.4,1.8,15.8,5.5,22.3c3.6,6.5,8.8,11.6,15.5,15.3c6.7,3.7,14.1,5.6,22.2,5.6c6.9,0,13.3-1.3,19-3.9c5.7-2.6,12.1-7.3,19-14.2
		l16.2,16.9c-9.3,9.1-18.1,15.3-26.3,18.9c-8.3,3.5-17.7,5.3-28.3,5.3c-19.5,0-35.5-6.2-48-18.6c-12.4-12.4-18.7-28.3-18.7-47.6
		c0-12.5,2.8-23.7,8.5-33.4c5.7-9.7,13.8-17.6,24.4-23.5c10.6-5.9,21.9-8.9,34.1-8.9c10.4,0,20.4,2.2,30,6.6
		C1585.5,21.9,1593.7,28.1,1600.7,36.2z"/>
	<path d="M1621.3,115.4c3.7,0,6.9,1.3,9.5,3.9c2.6,2.6,3.9,5.7,3.9,9.4c0,3.7-1.3,6.9-3.9,9.5c-2.6,2.6-5.8,3.9-9.5,3.9
		c-3.7,0-6.9-1.3-9.5-3.9c-2.6-2.6-3.9-5.8-3.9-9.5c0-3.7,1.3-6.9,3.9-9.4C1614.4,116.7,1617.6,115.4,1621.3,115.4z"/>
	<path d="M1652.1,8.5c4.1,0,7.6,1.5,10.5,4.4c2.9,3,4.4,6.6,4.4,10.8c0,4.2-1.4,7.7-4.3,10.6c-2.9,2.9-6.4,4.4-10.4,4.4
		c-4.1,0-7.7-1.5-10.6-4.5c-2.9-3-4.4-6.6-4.4-10.9c0-4.1,1.4-7.6,4.3-10.5C1644.6,10,1648.1,8.5,1652.1,8.5z M1640.5,46.8h23.3v93
		h-23.3V46.8z"/>
	<path d="M1719.3,44.4c8.8,0,17,2.2,24.7,6.6c7.7,4.4,13.7,10.3,18.1,17.9s6.5,15.6,6.5,24.4c0,8.8-2.2,17-6.5,24.6
		c-4.4,7.6-10.3,13.6-17.8,17.9c-7.5,4.3-15.8,6.5-24.9,6.5c-13.3,0-24.7-4.7-34.1-14.2c-9.4-9.5-14.1-21-14.1-34.6
		c0-14.5,5.3-26.6,16-36.3C1696.4,48.6,1707.2,44.4,1719.3,44.4z M1719.7,66.4c-7.2,0-13.3,2.5-18.1,7.6c-4.8,5-7.2,11.5-7.2,19.4
		c0,8.1,2.4,14.6,7.1,19.7c4.8,5,10.8,7.5,18.1,7.5c7.3,0,13.4-2.5,18.2-7.6c4.8-5.1,7.3-11.6,7.3-19.6c0-8-2.4-14.5-7.1-19.4
		C1733.2,68.9,1727.1,66.4,1719.7,66.4z"/>
</g>
</svg>
